<svg xmlns="http://www.w3.org/2000/svg" font-family="ui-sans-serif, system-ui, 'Segoe UI', Roboto, sans-serif" viewBox="0 0 1280 560"><defs><marker id="arr" markerHeight="7" markerWidth="7" orient="auto-start-reverse" refX="8" refY="5" viewBox="0 0 10 10"><path fill="#9a9aa2" d="M0 0 L10 5 L0 10 z"/></marker></defs><rect width="170" height="84" x="15" y="150" fill="#8c8c96" fill-opacity=".07" stroke="#94949c" stroke-opacity=".5" stroke-width="2" rx="42"/><text x="100" y="199" fill="#82828c" font-size="19" font-weight="600" text-anchor="middle">HTTP request</text><rect width="170" height="84" x="235" y="150" fill="#8c8c96" fill-opacity=".07" stroke="#94949c" stroke-opacity=".5" stroke-width="2" rx="12"/><text x="320" y="190" fill="#82828c" font-size="19" font-weight="600" text-anchor="middle">FormRequest</text><text x="320" y="216" fill="#8e8e96" font-size="13" text-anchor="middle">validation</text><rect width="170" height="84" x="455" y="150" fill="#ff2d20" fill-opacity=".06" stroke="#f43f33" stroke-opacity=".75" stroke-width="2" rx="12"/><text x="540" y="190" fill="#f43f33" font-size="19" font-weight="600" text-anchor="middle">Controller</text><text x="540" y="216" fill="#8e8e96" font-size="13" text-anchor="middle">thin</text><rect width="170" height="84" x="675" y="150" fill="#ff2d20" fill-opacity=".06" stroke="#f43f33" stroke-opacity=".75" stroke-width="2" rx="12"/><text x="760" y="190" fill="#f43f33" font-size="19" font-weight="600" text-anchor="middle">Service</text><text x="760" y="216" fill="#8e8e96" font-size="13" text-anchor="middle">business logic</text><rect width="170" height="84" x="895" y="150" fill="#8c8c96" fill-opacity=".07" stroke="#94949c" stroke-opacity=".5" stroke-width="2" rx="12"/><text x="980" y="199" fill="#82828c" font-size="19" font-weight="600" text-anchor="middle">Model</text><path fill="#8c8c96" fill-opacity=".07" stroke="#94949c" stroke-opacity=".5" stroke-width="2" d="M1115 172 v56 a70 14 0 0 0 140 0 v-56"/><ellipse cx="1185" cy="172" fill="#8c8c96" fill-opacity=".07" stroke="#94949c" stroke-opacity=".5" stroke-width="2" rx="70" ry="14"/><text x="1185" y="215" fill="#82828c" font-size="19" font-weight="600" text-anchor="middle">Database</text><rect width="170" height="84" x="455" y="400" fill="#8c8c96" fill-opacity=".07" stroke="#94949c" stroke-opacity=".5" stroke-width="2" rx="12"/><text x="540" y="440" fill="#82828c" font-size="19" font-weight="600" text-anchor="middle">Resource</text><text x="540" y="466" fill="#8e8e96" font-size="13" text-anchor="middle">serialization</text><rect width="170" height="84" x="675" y="400" fill="#8c8c96" fill-opacity=".07" stroke="#94949c" stroke-opacity=".5" stroke-width="2" rx="42"/><text x="760" y="449" fill="#82828c" font-size="19" font-weight="600" text-anchor="middle">JSON response</text><line x1="187" x2="231" y1="192" y2="192" stroke="#9a9aa2" stroke-width="2" marker-end="url(#arr)"/><line x1="407" x2="451" y1="192" y2="192" stroke="#9a9aa2" stroke-width="2" marker-end="url(#arr)"/><line x1="629" x2="671" y1="192" y2="192" stroke="#9a9aa2" stroke-width="2" marker-end="url(#arr)" marker-start="url(#arr)"/><text x="650" y="140" fill="#8e8e96" font-size="13" font-weight="600" text-anchor="middle">DTO</text><line x1="849" x2="891" y1="192" y2="192" stroke="#9a9aa2" stroke-width="2" marker-end="url(#arr)" marker-start="url(#arr)"/><line x1="1069" x2="1111" y1="192" y2="192" stroke="#9a9aa2" stroke-width="2" marker-end="url(#arr)" marker-start="url(#arr)"/><line x1="540" x2="540" y1="238" y2="396" stroke="#9a9aa2" stroke-width="2" marker-end="url(#arr)"/><line x1="629" x2="671" y1="442" y2="442" stroke="#9a9aa2" stroke-width="2" marker-end="url(#arr)"/></svg>